<svg xmlns="http://www.w3.org/2000/svg" width="29" height="22" viewBox="0 0 29 22" fill="none">
<path d="M2.46328 4.62895H26.2633C27.4233 4.62895 28.3633 3.68901 28.3633 2.52895C28.3633 1.3689 27.4233 0.428955 26.2633 0.428955H2.46328C1.30322 0.428955 0.363281 1.3689 0.363281 2.52895C0.363281 3.68901 1.30322 4.62895 2.46328 4.62895Z" fill="#949494"/>
<path d="M26.2633 8.82886H2.46328C1.30322 8.82886 0.363281 9.7688 0.363281 10.9289C0.363281 12.0889 1.30322 13.0289 2.46328 13.0289H26.2633C27.4233 13.0289 28.3633 12.0889 28.3633 10.9289C28.3633 9.7688 27.4233 8.82886 26.2633 8.82886Z" fill="#949494"/>
<path d="M26.2633 17.229H2.46328C1.30322 17.229 0.363281 18.1689 0.363281 19.329C0.363281 20.4891 1.30322 21.429 2.46328 21.429H26.2633C27.4233 21.429 28.3633 20.4891 28.3633 19.329C28.3633 18.1689 27.4233 17.229 26.2633 17.229Z" fill="#949494"/>
</svg>